<?xml version='1.0' encoding='UTF-8'?>
<svg xmlns="http://www.w3.org/2000/svg" xmlns:xlink="http://www.w3.org/1999/xlink" height="300px" width="300px" fill="#000000" version="1.1" x="0px" y="0px" viewBox="0 0 100 100" enable-background="new 0 0 100 100" xml:space="preserve">
	<defs>
		<clipPath id="picture-clip-path" clipPathUnits="objectBoundingBox">
  			<rect fill="none" width="100" height="100"/>
  			<path d="M56.096,35.084c0,0-1.289-1.257-1.289-2.324L53.905,17.7c0,0,0.622-0.196,0.664-1.272c0.432-0.189,0.732-0.62,0.732-1.122  c0-0.676-0.549-1.226-1.226-1.226h-8.152c-0.677,0-1.225,0.55-1.225,1.226c0,0.502,0.301,0.933,0.732,1.122  c0.042,1.076,0.663,1.272,0.663,1.272l-0.901,15.06c0,1.067-1.288,2.324-1.288,2.324c-3.833,4.211-4.21,10.872-4.21,10.872v35.188  c0,4.649,3.268,4.775,3.268,4.775h7.038h7.038c0,0,3.266-0.126,3.266-4.775V45.956C60.305,45.956,59.929,39.295,56.096,35.084z"/>
  		</clipPath>
	</defs>
</svg>