<?xml version="1.0" encoding="UTF-8" standalone="no"?>
<!DOCTYPE svg PUBLIC "-//W3C//DTD SVG 1.1//EN" "http://www.w3.org/Graphics/SVG/1.1/DTD/svg11.dtd">
<svg width="208px" height="180px" version="1.1" xmlns="http://www.w3.org/2000/svg" xmlns:xlink="http://www.w3.org/1999/xlink" xml:space="preserve" xmlns:serif="http://www.serif.com/" style="fill-rule:evenodd;clip-rule:evenodd;stroke-linejoin:round;stroke-miterlimit:2;">
    <rect id="Artboard1" x="0" y="0" width="207.431" height="180" style="fill:none;"/>
    <clipPath id="_clip1">
        <rect x="0" y="0" width="207.431" height="180"/>
    </clipPath>
    <g clip-path="url(#_clip1)">
        <g>
            <path d="M76.94,120.431L174.79,120.431C178.73,120.431 182.21,117.821 183.3,114.031L207.08,28.96C208.72,23.28 204.47,17.61 198.57,17.61L48.94,17.61C45.26,7.16 35.3,0 24.11,0L8.94,0C4.54,0 0.6,3.17 0.07,7.55C-0.57,12.79 3.51,17.26 8.62,17.26L24.11,17.26C28.19,17.26 31.8,20.01 32.9,23.99L65.05,136.991C52.43,137.421 42.61,148.131 44.08,161.011C45.2,170.841 53.14,178.762 62.96,179.862C75.93,181.312 86.91,171.181 86.91,158.481C86.91,156.581 86.57,154.561 86.06,153.001L154.93,153.001C154.44,154.221 153.99,156.581 153.99,158.481C153.99,171.201 165.01,181.342 178.02,179.852C188.31,178.672 196.4,169.991 196.93,159.621C197.57,147.221 187.75,136.981 175.04,136.981L81.78,136.981L76.94,120.431Z" style="fill:rgb(0,61,165);fill-rule:nonzero;"/>
            <path d="M157.47,67.15C156.71,63.47 154.41,61 151.05,59.57C146.51,57.63 142.17,58.31 138.09,60.94C135.72,62.47 133.94,64.55 132.52,66.95C131.09,69.37 129.14,75 129.37,80.62C129.5,83.68 130.45,86.55 132.19,89.1C133.3,90.73 134.63,92.13 136.48,92.95C138.24,93.73 140.35,93.45 141.57,92.19C142.54,91.18 142.86,89.93 142.81,88.57C142.79,87.96 142.53,87.2 142.22,86.49C141.87,85.69 140.82,85.59 140.26,86.25C140.26,86.26 140.25,86.26 140.25,86.27C139.42,87.23 137.75,87.56 136.69,87.04C134.32,85.87 133.11,82.51 133.44,78.2C133.74,74.28 136.83,70.25 138.8,68.83C140,68.05 141.29,67.48 142.74,67.39C144.95,67.25 146.85,67.88 148.11,69.82C149.39,71.78 149.41,74.47 147.65,76.45C144.41,80.12 152.69,79.11 156.06,74.63C157.69,72.42 158.02,69.82 157.47,67.15ZM113.57,66.95C112.15,64.54 110.37,62.46 108,60.94C103.91,58.3 99.58,57.62 95.04,59.57C91.68,61.01 89.38,63.48 88.62,67.15C88.07,69.82 88.4,72.42 90.06,74.62C93.43,79.1 101.71,80.1 98.47,76.44C96.72,74.46 96.73,71.77 98.01,69.81C99.27,67.88 101.17,67.25 103.38,67.38C104.83,67.47 106.11,68.04 107.32,68.82C109.29,70.23 112.38,74.27 112.68,78.19C113.01,82.5 111.8,85.86 109.43,87.03C108.36,87.56 106.7,87.22 105.87,86.26C105.87,86.25 105.86,86.25 105.86,86.24C105.29,85.58 104.25,85.68 103.9,86.48C103.59,87.19 103.33,87.96 103.31,88.56C103.26,89.92 103.57,91.18 104.55,92.18C105.77,93.44 107.88,93.72 109.64,92.94C111.49,92.12 112.82,90.71 113.93,89.09C115.67,86.54 116.63,83.67 116.75,80.61C116.95,75.01 115,69.37 113.57,66.95ZM125.68,83.88C125.556,82.546 124.42,81.514 123.08,81.52C121.74,81.514 120.604,82.546 120.48,83.88C120.11,88.08 118.98,92.24 116.64,95.97C115.1,98.42 115.1,98.42 117.07,100.92C118.79,103.1 121.37,106.59 123.15,106.59C125.01,106.59 127.3,103.2 129.1,100.92C131.07,98.43 131.07,98.43 129.53,95.97C127.18,92.24 126.05,88.08 125.68,83.88ZM120.38,74.08C120.43,75.55 121.61,76.72 123.08,76.72C124.55,76.72 125.73,75.55 125.78,74.08C126.17,63.51 130.13,53.64 131.61,50.08C132.82,47.17 133,44.61 131.81,40.69C130.96,37.9 129.82,35.33 128.32,32.94C127.92,32.31 126.73,30.71 126,29.68C122.69,25.02 123.64,25.01 120.2,29.67C119.45,30.69 118.25,32.31 117.85,32.94C116.35,35.33 115.12,37.87 114.36,40.69C113.52,43.77 113.35,47.17 114.56,50.08C116.04,53.64 119.99,63.5 120.38,74.08Z" style="fill:white;fill-rule:nonzero;"/>
        </g>
    </g>
</svg>
