<?xml version="1.0" encoding="UTF-8" standalone="no"?>
<!DOCTYPE svg PUBLIC "-//W3C//DTD SVG 1.1//EN" "http://www.w3.org/Graphics/SVG/1.1/DTD/svg11.dtd">
<svg width="208px" height="180px" version="1.1" xmlns="http://www.w3.org/2000/svg" xmlns:xlink="http://www.w3.org/1999/xlink" xml:space="preserve" xmlns:serif="http://www.serif.com/" style="fill-rule:evenodd;clip-rule:evenodd;stroke-linejoin:round;stroke-miterlimit:2;">
    <rect id="Artboard1" x="0" y="0" width="207.431" height="180" style="fill:none;"/>
    <clipPath id="_clip1">
        <rect x="0" y="0" width="207.431" height="180"/>
    </clipPath>
    <g clip-path="url(#_clip1)">
        <g>
            <path d="M76.94,120.431L174.79,120.431C178.73,120.431 182.21,117.821 183.3,114.031L207.08,28.96C208.72,23.28 204.47,17.61 198.57,17.61L48.94,17.61C45.26,7.16 35.3,0 24.11,0L8.94,0C4.54,0 0.6,3.17 0.07,7.55C-0.57,12.79 3.51,17.26 8.62,17.26L24.11,17.26C28.19,17.26 31.8,20.01 32.9,23.99L65.05,136.991C52.43,137.421 42.61,148.131 44.08,161.011C45.2,170.841 53.14,178.762 62.96,179.862C75.93,181.312 86.91,171.181 86.91,158.481C86.91,156.581 86.57,154.561 86.06,153.001L154.93,153.001C154.44,154.221 153.99,156.581 153.99,158.481C153.99,171.201 165.01,181.342 178.02,179.852C188.31,178.672 196.4,169.991 196.93,159.621C197.57,147.221 187.75,136.981 175.04,136.981L81.78,136.981L76.94,120.431Z" style="fill:rgb(255,0,40);fill-rule:nonzero;"/>
            <g>
                <path d="M153.855,54.541C152.154,50.519 149.72,46.908 146.618,43.807C143.516,40.706 139.906,38.27 135.884,36.57C131.72,34.808 127.298,33.916 122.739,33.916C118.182,33.916 113.759,34.809 109.595,36.57C105.573,38.27 101.962,40.706 98.861,43.807C95.76,46.908 93.324,50.519 91.624,54.541C89.862,58.705 88.97,63.127 88.97,67.686C88.97,72.245 89.863,76.667 91.624,80.831C93.324,84.852 95.759,88.464 98.861,91.564C101.962,94.667 105.573,97.1 109.595,98.801C113.758,100.563 118.181,101.456 122.739,101.456C127.298,101.456 131.721,100.563 135.884,98.801C139.906,97.1 143.516,94.666 146.618,91.564C149.72,88.464 152.154,84.852 153.855,80.831C155.617,76.667 156.509,72.245 156.509,67.686C156.509,63.127 155.617,58.705 153.855,54.541ZM139.327,46.85L139.259,46.809C139.115,46.722 138.902,46.536 138.794,46.404L138.449,45.977C138.355,45.86 138.272,45.626 138.272,45.476L138.272,44.882C138.272,44.789 138.35,44.711 138.444,44.711L139.073,44.711C139.173,44.759 139.458,44.95 139.687,45.118C139.804,45.201 139.93,45.405 139.952,45.545L139.967,45.635C140.001,45.846 140.127,46.149 140.25,46.324L140.414,46.553C140.534,46.722 140.755,46.953 140.917,47.08L141.199,47.299C141.325,47.397 141.498,47.612 141.568,47.758C141.605,47.835 141.937,48.524 142.127,48.761C142.304,48.982 142.517,49.29 142.519,49.293C142.606,49.419 142.684,49.666 142.684,49.82L142.684,49.957C142.684,50.031 142.641,50.057 142.575,50.037L141.862,49.823C141.714,49.778 141.503,49.633 141.408,49.512L140.868,48.819C140.737,48.651 140.485,48.444 140.293,48.347L139.805,48.102C139.701,48.05 139.619,47.897 139.633,47.782L139.663,47.535C139.694,47.282 139.546,46.981 139.327,46.85ZM136.98,47.225L136.842,47.409C136.752,47.53 136.544,47.672 136.397,47.713L135.594,47.939C135.553,47.951 135.499,47.957 135.441,47.957C135.312,47.957 135.176,47.927 135.093,47.882L134.689,47.663C134.588,47.607 134.457,47.577 134.323,47.577C134.174,47.577 134.032,47.613 133.924,47.678L133.598,47.874C133.562,47.895 133.516,47.907 133.466,47.907C133.389,47.907 133.315,47.878 133.269,47.833L132.336,46.901C132.244,46.807 132.183,46.605 132.206,46.476L132.35,45.732C132.377,45.597 132.51,45.41 132.63,45.341L132.675,45.317C132.756,45.271 132.887,45.242 133.01,45.242C133.07,45.242 133.124,45.248 133.167,45.261L133.243,45.284C133.356,45.319 133.507,45.338 133.656,45.338C133.739,45.338 133.86,45.332 133.969,45.303C134.004,45.293 134.045,45.289 134.089,45.289C134.201,45.289 134.296,45.32 134.335,45.348C134.456,45.436 134.687,45.589 134.851,45.69L135.215,45.914C135.364,46.006 135.601,46.186 135.729,46.307L136.081,46.639C136.236,46.784 136.514,46.954 136.717,47.024L136.942,47.103C136.976,47.115 136.997,47.132 137.003,47.153C137.009,47.17 137,47.198 136.98,47.225ZM122.739,99.741C113.86,99.741 105.814,96.112 100.003,90.261C99.985,90.112 99.961,89.956 99.939,89.842L99.794,89.076C99.758,88.891 99.701,88.589 99.668,88.403L99.516,87.57C99.479,87.367 99.381,87.064 99.291,86.881L99.042,86.365C98.982,86.244 98.983,86.022 99.045,85.902L99.286,85.418C99.348,85.293 99.527,85.149 99.661,85.114L99.786,85.081C100.035,85.016 100.255,84.765 100.288,84.51L100.543,82.516C100.57,82.309 100.557,81.986 100.513,81.783L100.313,80.842C100.274,80.659 100.217,80.361 100.185,80.175L100.095,79.652C100.069,79.5 100.104,79.244 100.169,79.106L100.7,77.977C100.781,77.805 100.915,77.528 100.997,77.365L101.273,76.812C101.369,76.619 101.444,76.3 101.444,76.085L101.444,74.68C101.444,74.396 101.215,74.165 100.93,74.165L100.725,74.165C100.584,74.165 100.366,74.072 100.268,73.969L99.955,73.641C99.821,73.503 99.598,73.284 99.457,73.155L99.07,72.796C98.909,72.648 98.614,72.498 98.399,72.456L97.494,72.279C97.357,72.253 97.165,72.119 97.092,71.999L97.072,71.968C96.963,71.789 96.75,71.546 96.587,71.417L95.923,70.885C95.759,70.754 95.477,70.599 95.28,70.53L95.037,70.446C94.939,70.412 94.87,70.293 94.89,70.192L94.932,69.973C94.94,69.933 95.001,69.594 94.895,69.421C94.899,69.395 94.917,69.34 94.963,69.28C95.096,69.107 95.121,68.802 95.022,68.57L94.983,68.481C94.919,68.33 94.862,68.087 94.862,67.96C94.862,67.782 94.78,67.493 94.675,67.304L94.149,66.346C94.043,66.153 93.81,65.918 93.619,65.811L93.325,65.645C93.207,65.579 93.079,65.396 93.058,65.262L92.616,62.476C92.582,62.261 92.448,61.96 92.313,61.789L91.448,60.711C92.909,54.152 96.386,48.344 101.191,43.974L101.932,43.751C102.131,43.69 102.42,43.548 102.59,43.427L103.176,43.005C103.292,42.922 103.525,42.866 103.667,42.888L104.453,43.011C104.68,43.046 105.008,42.971 105.196,42.838L106.007,42.271C106.177,42.151 106.408,41.926 106.53,41.759L107.634,40.255C107.738,40.112 107.936,39.891 108.067,39.771L108.705,39.184C108.819,39.078 108.915,38.912 108.969,38.744C110.4,38.06 111.888,37.479 113.427,37.011L113.329,37.098C113.183,37.227 112.959,37.454 112.831,37.602L111.676,38.956C111.529,39.128 111.57,39.27 111.595,39.324C111.619,39.376 111.7,39.5 111.928,39.5L112.293,39.5C112.53,39.5 112.833,39.37 112.996,39.198L113.307,38.871C113.413,38.76 113.637,38.636 113.789,38.606L114.95,38.374C115.141,38.336 115.446,38.26 115.631,38.204L117.158,37.742C117.344,37.685 117.641,37.576 117.819,37.498L119.752,36.651C119.897,36.587 120.164,36.545 120.322,36.56L121.559,36.677C121.758,36.697 122.08,36.692 122.278,36.668L124.614,36.385C124.825,36.36 125.132,36.259 125.318,36.153L125.953,35.792C127.695,35.966 129.395,36.281 131.046,36.724C131.03,36.751 131.012,36.776 130.998,36.802C130.892,36.978 130.768,37.271 130.712,37.469C130.679,37.593 130.534,37.736 130.41,37.77L130.158,37.838C130.035,37.872 129.84,37.82 129.751,37.73L129.642,37.621C129.473,37.453 129.166,37.333 128.93,37.341L128.38,37.362C128.172,37.369 127.858,37.434 127.663,37.508L127.525,37.561C127.392,37.612 127.149,37.609 127.017,37.554L126.826,37.474C126.653,37.402 126.369,37.281 126.196,37.207L126.095,37.162C125.857,37.06 125.53,37.125 125.349,37.311L125.187,37.479C125.055,37.617 124.844,37.848 124.718,37.994L124.479,38.272C124.363,38.406 124.167,38.599 124.05,38.692C123.999,38.733 123.885,38.723 123.808,38.646C123.79,38.628 123.629,38.472 123.427,38.472C123.176,38.472 122.626,39.019 122.62,39.025C122.51,39.136 122.414,39.36 122.394,39.404C122.302,39.626 122.314,39.955 122.421,40.169L122.434,40.196C122.534,40.397 122.757,40.626 122.94,40.717C123.113,40.804 123.418,40.872 123.632,40.872L123.77,40.872C123.821,40.872 123.852,40.888 123.859,40.899C123.864,40.903 123.861,40.915 123.858,40.921C123.826,41.019 123.691,41.142 123.583,41.176C123.343,41.249 123.164,41.467 123.164,41.683C123.164,41.81 123.136,42.064 123.101,42.237L123.098,42.251C123.071,42.386 122.936,42.566 122.815,42.631L122.735,42.673C122.546,42.775 122.299,42.991 122.175,43.165L122.116,43.248C122.028,43.37 121.848,43.47 121.746,43.478C121.656,43.484 121.493,43.41 121.421,43.302C121.339,43.179 121.268,42.935 121.268,42.78L121.268,42.552C121.268,42.331 121.171,42.013 121.047,41.829L120.971,41.714C120.88,41.579 120.777,41.318 120.751,41.157L120.725,41.009C120.68,40.739 120.43,40.527 120.157,40.527L120.019,40.527C119.761,40.527 119.486,40.717 119.394,40.958L119.22,41.415C119.173,41.538 119.014,41.678 118.885,41.708L118.188,41.871C117.949,41.927 117.696,42.138 117.597,42.362L117.233,43.197C117.173,43.332 117.18,43.473 117.251,43.581C117.321,43.69 117.446,43.751 117.596,43.751L117.871,43.751C118.086,43.751 118.39,43.682 118.564,43.596C118.587,43.584 118.607,43.583 118.624,43.591C118.648,43.602 118.667,43.63 118.676,43.667C118.732,43.893 118.934,44.146 119.146,44.257L119.156,44.263C119.274,44.325 119.398,44.492 119.415,44.613C119.433,44.737 119.372,44.893 119.307,44.943C119.128,45.084 119.066,45.383 119.164,45.622C119.228,45.783 119.319,46.066 119.36,46.239L119.385,46.349C119.419,46.49 119.386,46.735 119.317,46.863L119.272,46.947C119.204,47.071 119.018,47.219 118.882,47.258L118.406,47.391C118.254,47.435 117.986,47.438 117.833,47.398L117.08,47.204C116.827,47.139 116.52,47.253 116.379,47.463C116.26,47.641 116.168,47.954 116.168,48.176L116.168,48.815C116.168,49.066 116.329,49.353 116.542,49.484L117.042,49.789C117.225,49.901 117.535,50.006 117.747,50.029L118.678,50.128C118.906,50.152 119.229,50.066 119.415,49.93L120.129,49.408C120.274,49.301 120.531,49.137 120.688,49.049L121.474,48.608C121.667,48.499 121.895,48.258 121.995,48.06L122.1,47.851C122.155,47.742 122.317,47.647 122.436,47.651L123.031,47.672C123.229,47.68 123.549,47.66 123.745,47.629L123.936,47.599C124.091,47.575 124.351,47.609 124.493,47.671L124.597,47.716C124.721,47.771 124.865,47.94 124.897,48.072L124.912,48.137C124.968,48.361 125.163,48.634 125.353,48.761L125.742,49.021C125.912,49.134 126.199,49.275 126.393,49.341L126.551,49.395C126.68,49.439 126.84,49.596 126.885,49.723L126.898,49.762C126.969,49.962 127.136,50.241 127.282,50.397L127.363,50.487C127.464,50.594 127.595,50.647 127.724,50.631C127.853,50.615 127.967,50.532 128.037,50.403L128.258,50C128.33,49.869 128.515,49.704 128.653,49.648L128.931,49.538C129.023,49.501 129.148,49.546 129.195,49.635L129.651,50.492C129.748,50.674 129.938,50.931 130.084,51.078L130.377,51.371C130.479,51.473 130.612,51.521 130.741,51.502C130.873,51.483 130.985,51.4 131.054,51.273L131.275,50.868C131.345,50.742 131.532,50.582 131.67,50.534L131.935,50.44C132.055,50.397 132.255,50.435 132.353,50.518L132.744,50.851C132.916,50.997 133.228,51.118 133.452,51.126L134.048,51.147C134.236,51.154 134.548,51.16 134.74,51.16L135.06,51.16C135.257,51.16 135.574,51.134 135.768,51.101L136.19,51.03C136.307,51.012 136.469,51.086 136.532,51.188L136.816,51.653C136.896,51.788 136.968,52.043 136.968,52.2L136.968,53.023C136.968,53.2 136.943,53.499 136.914,53.676L136.844,54.097C136.816,54.268 136.73,54.544 136.657,54.701L136.582,54.858C136.536,54.954 136.513,55.074 136.508,55.194L136.207,54.806C136.08,54.647 135.856,54.423 135.696,54.297L135.594,54.217C135.445,54.1 135.209,54.023 134.991,54.023C134.943,54.023 134.894,54.029 134.85,54.037L134.334,54.136C134.233,54.155 134.078,54.168 133.93,54.168C133.847,54.168 133.771,54.164 133.711,54.156L132.929,54.059C132.761,54.037 132.495,53.953 132.344,53.874L131.396,53.372C131.279,53.31 131.12,53.275 130.957,53.275C130.836,53.275 130.723,53.295 130.631,53.331L130.124,53.534C129.867,53.636 129.719,53.926 129.786,54.194L129.802,54.261C129.84,54.41 129.828,54.656 129.777,54.787C129.747,54.868 129.627,54.924 129.527,54.902L129.008,54.781C128.837,54.742 128.555,54.647 128.396,54.573L127.921,54.356C127.766,54.286 127.53,54.126 127.405,54.01L127.174,53.793C127.014,53.643 126.721,53.489 126.506,53.445L126.307,53.403C126.136,53.367 125.855,53.276 125.696,53.204L125.406,53.074C125.366,53.056 125.337,53.025 125.324,52.987C125.311,52.948 125.315,52.906 125.336,52.867L125.379,52.786C125.482,52.595 125.56,52.277 125.56,52.061L125.56,51.838C125.56,51.644 125.55,51.37 125.539,51.225C125.517,50.995 125.281,50.815 125.002,50.815L124.545,50.815C124.35,50.815 124.034,50.833 123.842,50.854L122.467,51.007C122.417,51.012 122.354,51.015 122.285,51.015C122.127,51.015 121.955,51 121.844,50.978L121.418,50.889C121.365,50.877 121.307,50.872 121.243,50.872C121.038,50.872 120.812,50.931 120.665,51.022L120.426,51.17C120.262,51.271 120.002,51.445 119.846,51.556L119.262,51.974C119.177,52.035 119.027,52.076 118.894,52.076C118.854,52.076 118.818,52.073 118.789,52.065L117.764,51.816C117.72,51.805 117.675,51.8 117.627,51.8C117.403,51.8 117.174,51.92 117.06,52.098L116.699,52.663C116.614,52.795 116.417,52.971 116.275,53.039L115.659,53.336C115.454,53.435 115.221,53.675 115.129,53.883L114.859,54.49C114.787,54.65 114.639,54.907 114.536,55.05L114.208,55.502C114.107,55.641 113.904,55.841 113.766,55.941L112.676,56.728C112.505,56.852 112.282,57.087 112.169,57.264L111.487,58.333C111.381,58.498 111.231,58.78 111.152,58.959L110.422,60.617C110.309,60.873 110.392,61.168 110.61,61.287C110.667,61.318 110.705,61.435 110.668,61.54L110.622,61.671C110.553,61.864 110.486,62.174 110.468,62.377L110.3,64.255C110.283,64.447 110.27,64.761 110.27,64.955L110.27,66.326C110.27,66.591 110.469,66.856 110.723,66.928L111.024,67.014C111.139,67.047 111.261,67.186 111.277,67.307L111.321,67.633C111.35,67.842 111.455,68.149 111.561,68.332L112.223,69.475C112.328,69.656 112.535,69.904 112.693,70.039L113.726,70.92C113.875,71.048 114.137,71.233 114.309,71.332L114.904,71.676C115.004,71.734 115.135,71.765 115.269,71.765C115.418,71.765 115.559,71.728 115.668,71.659L115.956,71.478C116.053,71.417 116.227,71.371 116.37,71.371C116.405,71.371 116.435,71.375 116.462,71.379L116.793,71.439C116.839,71.448 116.887,71.453 116.936,71.453C117.103,71.453 117.314,71.4 117.414,71.25C117.417,71.249 117.422,71.249 117.429,71.249C117.471,71.249 117.524,71.269 117.573,71.303L118.062,71.642C118.201,71.74 118.412,71.8 118.612,71.8C118.687,71.8 118.755,71.791 118.815,71.776L121.261,71.128C121.407,71.09 121.689,71.09 121.835,71.13L122.362,71.271C122.494,71.307 122.666,71.453 122.724,71.577L122.941,72.052C123.042,72.272 123.298,72.48 123.534,72.537L123.643,72.563C123.842,72.609 124.146,72.646 124.338,72.646C124.477,72.646 124.711,72.724 124.834,72.814L125.101,73.007C125.21,73.085 125.307,73.278 125.307,73.412L125.307,73.641C125.307,73.818 125.286,74.12 125.258,74.297L125.18,74.808C125.142,75.051 125.247,75.363 125.426,75.533L125.525,75.629C125.613,75.714 125.66,75.899 125.622,76.017L125.605,76.073C125.527,76.313 125.606,76.639 125.784,76.816L126.762,77.795C126.901,77.934 127.142,78.141 127.3,78.257L127.434,78.354C127.542,78.434 127.64,78.628 127.64,78.762L127.64,79.813C127.64,80.013 127.673,80.332 127.716,80.527L127.937,81.549C127.968,81.688 127.924,81.922 127.846,82.043L127.214,83.022C127.102,83.195 126.97,83.486 126.915,83.686L126.597,84.809C126.536,85.027 126.562,85.362 126.657,85.568L127.237,86.821C127.314,86.985 127.422,87.267 127.474,87.438L127.683,88.109C127.733,88.269 127.763,88.546 127.751,88.715L127.712,89.22C127.695,89.436 127.752,89.76 127.841,89.958L128.154,90.658C128.233,90.831 128.366,91.113 128.451,91.283L128.647,91.676C128.721,91.82 128.784,92.089 128.784,92.249L128.784,92.752C128.784,92.988 128.909,93.292 129.075,93.459L129.094,93.476C129.261,93.643 129.563,93.769 129.8,93.769L130.165,93.769C130.37,93.769 130.686,93.725 130.884,93.671C130.951,93.652 132.526,93.212 132.666,93.166C132.807,93.119 134.328,92.157 134.974,91.746C135.148,91.635 135.391,91.425 135.524,91.267L136.815,89.761C136.93,89.628 137.145,89.424 137.284,89.316L138.159,88.639C138.334,88.503 138.528,88.233 138.6,88.025L138.834,87.348C138.901,87.152 138.955,86.833 138.955,86.625L138.955,86.396C138.955,86.261 139.054,86.062 139.158,85.979L139.622,85.621C139.776,85.502 140.015,85.294 140.155,85.16L141.309,84.037C141.448,83.9 141.662,83.665 141.781,83.511L142.501,82.589C142.641,82.41 142.75,82.096 142.75,81.87L142.75,81.001C142.75,80.803 142.718,80.484 142.681,80.289L142.581,79.774C142.548,79.598 142.51,79.296 142.5,79.117L142.45,78.293C142.44,78.139 142.503,77.888 142.582,77.756L143.005,77.063C143.094,76.914 143.277,76.686 143.401,76.565L144.233,75.762C144.403,75.597 144.533,75.294 144.533,75.058L144.533,74.189C144.533,74.053 144.629,73.855 144.736,73.772L145.199,73.414C145.36,73.289 145.586,73.067 145.713,72.907L146.566,71.844C146.695,71.68 146.852,71.397 146.919,71.2L147.292,70.111C147.354,69.931 147.452,69.639 147.51,69.457L147.846,68.418C147.911,68.221 147.96,67.904 147.96,67.696L147.96,67.422C147.96,67.135 147.725,66.912 147.435,66.934L146.884,66.974C146.678,66.989 146.366,67.06 146.173,67.135L145.487,67.402C145.313,67.47 145.026,67.576 144.849,67.639L144.626,67.717C144.588,67.731 144.539,67.737 144.485,67.737C144.371,67.737 144.25,67.706 144.179,67.656L143.963,67.503C143.846,67.42 143.755,67.245 143.755,67.148C143.755,66.941 143.638,66.654 143.483,66.48C143.342,66.323 143.087,66.126 142.9,66.029L142.367,65.757C142.234,65.689 142.066,65.508 142.008,65.371L141.866,65.041C141.796,64.878 141.702,64.594 141.663,64.42L141.498,63.717C141.45,63.516 141.321,63.261 141.161,63.162C141.106,63.126 140.977,62.972 140.902,62.81L140.545,62.017C140.471,61.858 140.381,61.577 140.344,61.405L140.209,60.751C140.165,60.534 140.007,60.243 139.85,60.086L139.603,59.839C139.482,59.716 139.305,59.486 139.22,59.336L139.194,59.291C139.1,59.127 138.945,58.858 138.848,58.695L137.826,56.954C137.751,56.829 137.634,56.652 137.53,56.506L138.167,56.506C138.294,56.506 138.471,56.606 138.534,56.717L138.643,56.903C138.74,57.066 138.898,57.332 138.996,57.494L139.465,58.277C139.571,58.454 139.774,58.702 139.926,58.84C140.055,58.956 140.695,59.535 140.896,59.639C141.005,59.722 141.402,60.344 141.71,60.876C141.805,61.041 141.952,61.308 142.038,61.472L142.767,62.832C142.861,63.005 143.033,63.273 143.152,63.431L143.331,63.663C143.423,63.784 143.503,64.023 143.503,64.174L143.503,64.311C143.503,64.514 143.538,64.828 143.583,65.027L143.796,65.959C143.852,66.203 144.073,66.446 144.31,66.526L144.895,66.72C144.969,66.744 145.05,66.756 145.135,66.756C145.321,66.756 145.515,66.7 145.651,66.6L146.653,65.863C146.811,65.747 147.052,65.54 147.192,65.401L147.758,64.835C147.897,64.696 148.105,64.456 148.223,64.299L148.771,63.568C148.897,63.398 149.039,63.106 149.091,62.901L149.47,61.417C149.519,61.219 149.559,60.903 149.559,60.7L149.559,59.968C149.559,59.739 149.442,59.425 149.29,59.255L148.739,58.627C148.608,58.479 148.377,58.258 148.222,58.134L147.843,57.831C147.736,57.745 147.602,57.706 147.464,57.723C147.328,57.74 147.208,57.809 147.125,57.919L146.947,58.151C146.821,58.315 146.667,58.596 146.599,58.79C146.587,58.825 146.571,58.837 146.563,58.84C146.556,58.841 146.536,58.838 146.506,58.81L146.101,58.446C145.989,58.345 145.868,58.127 145.842,57.977L145.776,57.601C145.736,57.369 145.56,57.091 145.368,56.954L144.51,56.345C144.384,56.256 144.226,56.051 144.174,55.906L144.091,55.681C144.025,55.499 143.915,55.211 143.847,55.038L143.776,54.853C143.77,54.841 143.769,54.832 143.766,54.823C143.775,54.823 143.784,54.824 143.796,54.826L144.357,54.93C144.503,54.957 144.715,55.083 144.81,55.198L145.014,55.446C145.14,55.598 145.363,55.826 145.512,55.955L145.68,56.1C145.844,56.243 146.139,56.388 146.353,56.431L146.824,56.524C146.996,56.558 147.279,56.647 147.441,56.716L147.77,56.857C147.948,56.934 148.247,57.041 148.433,57.096L149.01,57.267C149.213,57.328 149.54,57.35 149.752,57.318L149.987,57.283C150.129,57.261 150.363,57.318 150.48,57.402L150.563,57.461C150.679,57.544 150.81,57.748 150.837,57.89L150.891,58.176C150.938,58.42 151.158,58.673 151.395,58.751L151.704,58.855C151.839,58.9 152.02,59.056 152.083,59.184L152.096,59.21C152.177,59.369 152.285,59.647 152.336,59.817L152.371,59.936C152.416,60.087 152.511,60.186 152.634,60.21C152.756,60.234 152.882,60.177 152.979,60.054L153.04,59.976L153.129,60.418C153.168,60.613 153.261,60.92 153.338,61.103L153.667,61.888C153.735,62.051 153.822,62.335 153.857,62.508L153.997,63.207C154.036,63.403 154.132,63.71 154.21,63.893L154.488,64.543C154.531,64.642 154.597,64.77 154.668,64.893C154.747,65.812 154.788,66.744 154.788,67.684C154.794,85.362 140.415,99.741 122.739,99.741Z" style="fill:white;fill-rule:nonzero;"/>
                <path d="M146.388,80.87C146.303,80.87 146.22,80.903 146.138,80.971L145.662,81.36C145.491,81.501 145.309,81.78 145.25,81.995L145.204,82.156C145.164,82.295 145.018,82.487 144.895,82.562L144.797,82.62C144.633,82.72 144.37,82.884 144.211,82.987L143.871,83.208C143.698,83.32 143.459,83.536 143.328,83.697L142.981,84.123C142.84,84.3 142.728,84.614 142.728,84.84L142.728,85.024C142.728,85.176 142.65,85.418 142.558,85.54L142.324,85.857C142.208,86.015 142.037,86.281 141.942,86.451L141.589,87.087C141.472,87.298 141.45,87.626 141.538,87.851L141.699,88.266C141.777,88.464 141.974,88.597 142.189,88.597C142.249,88.597 142.309,88.586 142.364,88.565L142.725,88.434C142.937,88.357 143.198,88.149 143.319,87.961L143.45,87.759C143.554,87.6 143.723,87.345 143.829,87.194L144.262,86.569C144.366,86.417 144.548,86.178 144.667,86.036L144.914,85.739C145.047,85.577 145.205,85.296 145.273,85.097L145.6,84.145C145.656,83.984 145.789,83.731 145.893,83.595L146.441,82.862C146.576,82.683 146.681,82.367 146.681,82.142L146.681,81.228C146.684,80.98 146.536,80.87 146.388,80.87Z" style="fill:white;fill-rule:nonzero;"/>
            </g>
        </g>
    </g>
</svg>
