<svg xmlns="http://www.w3.org/2000/svg" viewBox="0 0 382 394" id="svg-robinson" class="cartoon_robinson animated">
				<path id="face_complete" d="M307.678,199.72C301.078,201.037 299.074,203.542 296.133,207.063C296.154,206.44 296.177,205.818 296.199,205.193C297.078,202.768 297.817,200.65 297.817,200.65C295.643,177.24 293.466,153.808 290.033,130.548C288.94,123.148 276.168,102.569 274.594,100.074C263.634,82.707 247.534,67.149 229.24,57.622C219.136,52.866 207.088,10.486 195.679,8.312C154.235,0.411 106.053,54.345 81.947,89.715C74.732,100.301 68.53,108.805 65.696,120.985C58.76,150.797 67.399,180.653 69.688,210.247C66.606,206.347 60.219,201.01 54.761,201.471C52.539,201.659 46.308,206.16 47.956,209.235C52.188,217.132 53.75,216.039 57.314,224.302C61.461,233.915 63.752,244.227 66.487,254.327C69.014,263.657 68.588,263.633 69.255,273.297C69.338,274.502 69.023,276.033 69.905,276.862C74.431,281.121 73.718,274.701 76.504,274.379C77.084,286.193 79.251,297.444 81.855,308.942C83.576,316.541 85.002,324.217 88.629,331.199C93.518,340.61 101.702,347.737 109.089,355.131C124.629,370.683 142.1,384.509 163.751,390.159C171.542,392.192 179.564,393.132 187.608,393.237C201.692,393.422 215.812,389.932 227.911,382.216C236.054,377.023 242.121,369.376 249.617,363.388C261.108,354.209 275.02,346.842 282.507,333.639C292.077,316.763 292.898,295.896 295.904,277.17C299.195,256.666 305.046,236.267 310.395,216.214C312.065,209.951 313.33,210.578 316.101,205.272C316.535,204.441 317.017,202.4 315.617,201.823C313.087,200.779 310.4,200.02 307.678,199.72" style="fill:rgb(255,228,195);fill-rule:nonzero;"/>
				<path id="levres" d="M143.326,324.903C143.326,324.903 149.269,330.765 154.771,334.192C159.472,337.12 166.282,340.462 178.638,340.583C182.204,341.498 199.907,341.111 213.264,324.635C204.798,324.189 192.926,323.227 185.746,324.824C177.932,326.562 176.775,326.26 168.189,324.841C163.488,324.064 157.522,324.305 154.125,324.415C147.514,324.63 148.931,325.339 148.982,325.333" style="fill:rgb(255,183,140);fill-rule:nonzero;"/>
				<path id="levre_inferieure" d="M148.337,326.901C148.337,326.901 158.691,337.419 172.75,340.112C180.109,341.521 181.582,340.942 189.702,340.336C194.636,339.968 201.118,336.179 205.536,333.141C208.602,331.032 215.845,325.211 215.717,325.22" style="fill:none;fill-rule:nonzero;stroke:rgb(249,173,187);stroke-width:1.86px;"/>
				<path id="bouche" d="M142.094,324.399C145.594,324.088 150.569,326.79 159.252,329.137C162.821,330.102 166.372,330.94 169.529,331.362C184.53,333.367 190.416,331.001 190.416,331.001C190.416,331.001 203.296,326.25 210.419,325.578C212.362,325.395 214.769,323.052 220.689,323.545" style="fill:none;fill-rule:nonzero;stroke:rgb(230,155,161);stroke-width:2.1px;"/>
				<path id="sourcil_droit" d="M157.397,215.132C157.397,215.132 137.47,211.943 127.873,212.216C118.275,212.49 111.087,213.582 109.872,214.848C108.656,216.115 106.782,216.656 106.782,216.656L103.931,214.813C103.931,214.813 109.958,209.469 128.051,209.478C131.313,209.48 134.296,209.591 137.007,209.775C149.337,210.612 156.026,212.95 157.517,213.306C159.335,213.741 157.397,215.132 157.397,215.132Z" style="fill-rule:nonzero;"/>
				<path id="sourcil_gauche" d="M200.523,212.424C200.523,212.424 222.9,208.294 233.721,208.244C244.541,208.194 252.666,209.109 254.066,210.424C255.466,211.739 257.59,212.252 257.59,212.252L260.759,210.174C260.759,210.174 253.84,204.658 233.454,205.314C213.067,205.97 202.383,209.94 200.345,210.471C198.308,211.002 200.523,212.424 200.523,212.424Z" style="fill-rule:nonzero;"/>
				<path id="oeil_ferme" d="M211.568,227.889C211.568,227.889 215.786,231.061 236.849,230.783C247.242,230.646 249.834,221.361 252.883,227.299C250.199,232.729 231.974,239.39 211.568,227.889Z" style="fill-rule:nonzero;"/>
				<path id="oeil_ouvert" d="M213.196,229.897C212.977,229.272 212.756,228.642 212.657,227.996C212.449,226.647 212.57,225.017 213.231,223.704C214.892,220.405 218.851,218.383 223.371,217.409C235.59,214.775 247.971,218.604 253.335,226.848C249.995,231.312 232.566,238.396 213.196,229.897Z" style="fill:white;fill-rule:nonzero;"/>
				<path id="pupille" d="M231.166,212.866C236.595,212.787 241.065,217.483 241.141,223.348C241.218,229.213 236.872,234.039 231.443,234.119C226.014,234.198 221.544,229.502 221.467,223.637C221.391,217.772 225.736,212.946 231.166,212.866Z" style="fill:rgb(135,62,0);"/>
				<path id="iris" d="M231.098,217.944C233.937,217.902 236.275,220.358 236.315,223.426C236.355,226.493 234.083,229.017 231.243,229.058C228.404,229.1 226.066,226.644 226.026,223.576C225.986,220.509 228.259,217.985 231.098,217.944Z"/>
				<path id="reflection" d="M234.799,219.919C235.749,219.905 236.532,220.727 236.545,221.753C236.558,222.78 235.798,223.625 234.847,223.639C233.897,223.653 233.114,222.831 233.101,221.804C233.088,220.777 233.848,219.933 234.799,219.919Z" style="fill:white;"/>
				<path id="oeil_ferme1" d="M148.835,228.185C148.835,228.185 146.054,231.024 128.76,231.05C120.227,231.064 115.801,223.344 113.361,228.594C116.576,233.039 133.84,237.994 148.835,228.185Z" style="fill-rule:nonzero;"/>
				<path id="oeil_ouvert1" d="M148.835,230.33C148.61,229.847 148.384,229.361 148.064,228.898C147.304,227.801 146.516,226.708 145.599,225.657C143.318,223.044 139.515,220.703 134.67,220.073C133.131,219.873 131.547,219.788 129.974,219.79C120.754,219.798 115.583,224.246 111.04,228.615C114.583,232.115 130.551,238.619 148.835,230.33Z" style="fill:white;fill-rule:nonzero;"/>
				<ellipse id="pupille1" cx="130.666" cy="225.089" rx="10.033" ry="10.099" style="fill:rgb(135,62,0);"/>
				<ellipse id="iris1" cx="130.673" cy="224.867" rx="5.107" ry="5.141"/>
				<ellipse id="reflection1" cx="126.736" cy="222.885" rx="1.672" ry="1.683" style="fill:white;"/>
				<path id="nez" d="M178.31,298.533L178.221,298.531L178.132,298.529L178.039,298.524L177.945,298.518L177.849,298.511L177.751,298.501L177.651,298.49L177.55,298.476L177.446,298.46L177.342,298.442L177.235,298.422L177.128,298.399L177.019,298.373L176.908,298.344L176.797,298.312L176.684,298.277L176.575,298.24L176.513,298.217L176.456,298.196L176.398,298.174L176.34,298.15L176.282,298.126L176.224,298.1L176.165,298.073L176.108,298.046L176.049,298.017L175.99,297.987L175.931,297.956L175.872,297.924L175.756,297.856L175.698,297.819L175.639,297.782L175.58,297.743L175.522,297.703L175.464,297.661L175.406,297.619L175.349,297.575L175.292,297.529L175.236,297.482L175.179,297.433L175.123,297.383L175.068,297.331L175.013,297.278L174.959,297.224L174.906,297.168L174.853,297.11L174.8,297.051L174.749,296.989L174.699,296.928L174.649,296.864L174.601,296.798L174.553,296.732L174.507,296.664L174.462,296.594L174.417,296.523L174.375,296.452L174.355,296.468L174.274,296.53L174.192,296.59L174.108,296.648L174.024,296.703L173.939,296.757L173.853,296.808L173.766,296.858L173.679,296.906L173.59,296.953L173.499,296.998L173.409,297.042L173.317,297.084L173.224,297.125L173.13,297.165L173.036,297.203L172.939,297.242L172.842,297.278L172.744,297.314L172.645,297.349L172.544,297.383L172.442,297.415L172.339,297.447L172.235,297.478L172.13,297.508L172.024,297.537L171.916,297.566L171.807,297.593L171.698,297.62L171.587,297.646L171.475,297.671L171.361,297.695L171.247,297.718L171.131,297.741L171.014,297.762L170.897,297.784L170.778,297.804L170.658,297.823L170.537,297.842L170.414,297.86L170.291,297.876L170.167,297.892L170.041,297.908L169.915,297.922L169.787,297.936L169.659,297.949L169.529,297.961L169.398,297.972L169.267,297.982L169.134,297.992L169.001,298.001L168.867,298.008L168.731,298.015L168.595,298.021L168.458,298.026L168.32,298.031L168.181,298.034L168.041,298.037L167.901,298.038L167.76,298.039L167.618,298.039L167.474,298.038L167.331,298.035L167.186,298.033L167.041,298.028L166.896,298.024L166.749,298.018L166.602,298.011L166.454,298.003L166.305,297.995L166.156,297.985L166.006,297.974L165.855,297.963L165.704,297.95L165.553,297.936L165.4,297.922L165.248,297.906L165.095,297.889L164.941,297.871L164.787,297.852L164.633,297.832L164.477,297.811L164.322,297.789L164.166,297.766L163.854,297.716L163.539,297.662L163.382,297.633L163.224,297.603L163.065,297.571L162.907,297.539L162.749,297.506L162.59,297.471L162.431,297.435L162.271,297.398L162.112,297.36L161.952,297.32L161.793,297.279L161.633,297.237L161.473,297.194L161.314,297.15L161.153,297.104L160.993,297.057L160.834,297.008L160.673,296.959L160.514,296.907L160.353,296.855L160.193,296.802L160.034,296.747L159.874,296.691L159.715,296.633L159.555,296.574L159.396,296.514L159.237,296.452L159.078,296.388L158.92,296.323L158.761,296.257L158.672,296.219L158.584,296.18L158.496,296.14L158.409,296.099L158.323,296.057L158.237,296.014L158.153,295.971L158.069,295.927L157.987,295.882L157.905,295.836L157.823,295.789L157.743,295.741L157.663,295.693L157.585,295.643L157.506,295.593L157.429,295.542L157.353,295.49L157.278,295.438L157.203,295.384L157.13,295.33L157.057,295.275L156.984,295.22L156.914,295.164L156.844,295.107L156.774,295.048L156.706,294.99L156.638,294.931L156.571,294.87L156.505,294.809L156.441,294.748L156.377,294.686L156.314,294.623L156.251,294.56L156.19,294.496L156.13,294.431L156.071,294.366L156.012,294.3L155.954,294.234L155.898,294.167L155.842,294.099L155.787,294.031L155.733,293.962L155.68,293.893L155.628,293.823L155.577,293.753L155.527,293.682L155.477,293.611L155.429,293.54L155.381,293.467L155.335,293.395L155.289,293.322L155.244,293.248L155.201,293.174L155.157,293.1L155.116,293.026L155.074,292.951L155.034,292.876L154.994,292.8L154.956,292.724L154.918,292.648L154.882,292.571L154.846,292.494L154.811,292.417L154.776,292.339L154.744,292.262L154.711,292.185L154.679,292.106L154.648,292.028L154.589,291.871L154.561,291.791L154.534,291.712L154.507,291.633L154.481,291.554L154.456,291.474L154.431,291.394L154.408,291.314L154.385,291.234L154.363,291.155L154.342,291.073L154.321,290.993L154.301,290.913L154.282,290.832L154.264,290.751L154.246,290.671L154.229,290.589L154.198,290.428L154.169,290.266L154.143,290.103L154.131,290.022L154.119,289.941L154.109,289.859L154.098,289.778L154.08,289.615L154.064,289.453L154.058,289.371L154.051,289.29L154.045,289.209L154.04,289.124L154.031,288.965L154.026,288.804L154.021,288.641L154.02,288.479L154.02,288.317L154.022,288.156L154.027,287.995L154.034,287.835L154.043,287.674L154.053,287.515L154.066,287.355L154.081,287.196L154.097,287.037L154.115,286.88L154.135,286.722L154.157,286.565L154.18,286.409L154.205,286.254L154.232,286.098L154.26,285.944L154.29,285.791L154.321,285.638L154.354,285.486L154.389,285.335L154.425,285.185L154.462,285.036L154.501,284.887L154.541,284.74L154.583,284.593L154.626,284.447L154.67,284.303L154.716,284.159L154.762,284.017L154.81,283.876L154.859,283.735L154.909,283.597L154.961,283.458L155.014,283.322L155.068,283.186L155.123,283.052L155.178,282.919L155.235,282.788L155.294,282.658L155.353,282.529L155.413,282.402L155.474,282.276L155.536,282.151L155.6,282.028L155.664,281.907L155.73,281.787L155.796,281.668L155.862,281.552L155.931,281.436L156,281.323L156.071,281.21L156.142,281.1L156.214,280.991L156.287,280.884L156.362,280.779L156.437,280.676L156.514,280.574L156.592,280.475L156.671,280.376L156.751,280.28L156.833,280.186L156.916,280.093L157,280.002L157.085,279.914L157.174,279.827L157.263,279.743L157.354,279.66L157.443,279.583L157.494,279.54L157.542,279.502L157.591,279.464L157.64,279.427L157.688,279.39L157.739,279.354L157.79,279.318L157.833,279.289L157.954,279.207L158.069,279.128L158.187,279.046L158.306,278.961L158.428,278.873L158.552,278.783L158.677,278.69L158.804,278.594L158.932,278.497L159.061,278.397L159.192,278.295L159.323,278.192L159.455,278.087L159.587,277.981L159.72,277.874L159.854,277.765L159.987,277.655L160.121,277.545L160.254,277.434L160.388,277.322L160.521,277.21L160.785,276.985L160.916,276.872L161.176,276.646L161.431,276.423L161.681,276.202L161.924,275.986L162.16,275.774L162.387,275.568L162.605,275.369L162.813,275.178L163.01,274.997L163.194,274.825L163.365,274.665L163.521,274.519L163.789,274.265L163.989,274.075L164.113,273.956L164.155,273.915L164.287,273.799L164.43,273.699L164.582,273.616L164.742,273.549L164.907,273.501L165.076,273.472L165.247,273.46L165.418,273.469L165.588,273.496L165.753,273.542L165.914,273.606L166.067,273.688L166.211,273.785L166.345,273.899L166.467,274.026L166.575,274.167L166.67,274.318L166.749,274.479L166.811,274.649L166.857,274.824L166.884,275.004L166.895,275.185L166.887,275.366L166.862,275.546L166.818,275.722L166.758,275.892L166.682,276.055L166.589,276.208L166.483,276.35L166.362,276.479L166.316,276.524L166.183,276.652L165.973,276.852L165.695,277.115L165.531,277.269L165.354,277.435L165.163,277.612L164.959,277.801L164.743,277.999L164.517,278.206L164.28,278.419L164.034,278.64L163.781,278.866L163.52,279.097L163.253,279.331L162.981,279.566L162.842,279.686L162.703,279.804L162.563,279.924L162.422,280.043L162.28,280.161L162.138,280.279L161.996,280.398L161.709,280.632L161.566,280.748L161.422,280.864L161.278,280.977L161.134,281.091L160.991,281.202L160.847,281.312L160.705,281.421L160.562,281.528L160.421,281.634L160.279,281.737L160.138,281.839L159.998,281.939L159.859,282.036L159.72,282.131L159.591,282.218L159.572,282.231L159.56,282.239L159.549,282.247L159.536,282.257L159.522,282.267L159.509,282.278L159.494,282.29L159.483,282.299L159.448,282.33L159.414,282.36L159.379,282.393L159.342,282.429L159.305,282.469L159.265,282.511L159.225,282.556L159.183,282.604L159.141,282.655L159.098,282.708L159.054,282.764L159.01,282.823L158.965,282.885L158.92,282.948L158.875,283.014L158.829,283.083L158.783,283.154L158.738,283.227L158.692,283.302L158.646,283.38L158.6,283.459L158.554,283.541L158.509,283.624L158.464,283.71L158.419,283.797L158.374,283.886L158.33,283.976L158.287,284.068L158.243,284.163L158.201,284.258L158.159,284.354L158.118,284.453L158.077,284.552L158.036,284.654L157.997,284.756L157.959,284.859L157.921,284.963L157.884,285.069L157.848,285.175L157.813,285.283L157.778,285.391L157.745,285.501L157.712,285.611L157.681,285.722L157.65,285.833L157.621,285.946L157.593,286.058L157.566,286.171L157.54,286.285L157.515,286.4L157.491,286.514L157.469,286.629L157.448,286.744L157.428,286.859L157.409,286.975L157.392,287.09L157.376,287.205L157.362,287.321L157.348,287.437L157.336,287.552L157.326,287.667L157.316,287.783L157.309,287.897L157.303,288.011L157.298,288.125L157.295,288.238L157.293,288.351L157.293,288.464L157.294,288.576L157.297,288.687L157.301,288.798L157.307,288.911L157.31,288.962L157.314,289.016L157.318,289.071L157.323,289.124L157.333,289.231L157.345,289.338L157.352,289.391L157.366,289.495L157.382,289.6L157.39,289.651L157.4,289.702L157.409,289.753L157.428,289.854L157.439,289.904L157.45,289.954L157.461,290.004L157.472,290.052L157.485,290.101L157.497,290.15L157.51,290.198L157.523,290.246L157.536,290.294L157.55,290.341L157.564,290.389L157.58,290.435L157.595,290.481L157.61,290.527L157.626,290.573L157.642,290.618L157.659,290.664L157.676,290.708L157.693,290.752L157.711,290.796L157.729,290.84L157.748,290.884L157.767,290.927L157.806,291.012L157.826,291.054L157.868,291.137L157.89,291.178L157.911,291.218L157.934,291.259L157.956,291.299L157.979,291.339L158.002,291.378L158.027,291.418L158.051,291.457L158.101,291.533L158.127,291.571L158.152,291.609L158.179,291.646L158.206,291.683L158.234,291.72L158.262,291.757L158.318,291.828L158.347,291.864L158.378,291.899L158.408,291.934L158.438,291.969L158.47,292.003L158.502,292.037L158.535,292.071L158.567,292.105L158.601,292.138L158.635,292.171L158.67,292.204L158.705,292.237L158.74,292.269L158.777,292.301L158.814,292.333L158.851,292.364L158.89,292.395L158.929,292.426L158.969,292.457L159.009,292.487L159.05,292.517L159.091,292.546L159.134,292.576L159.177,292.606L159.221,292.635L159.265,292.663L159.31,292.692L159.357,292.72L159.403,292.747L159.45,292.775L159.549,292.829L159.599,292.856L159.649,292.881L159.701,292.907L159.754,292.933L159.807,292.958L159.861,292.983L159.916,293.007L159.973,293.031L160.106,293.087L160.241,293.142L160.375,293.196L160.646,293.3L160.782,293.35L160.919,293.399L161.055,293.447L161.192,293.495L161.329,293.54L161.466,293.586L161.604,293.629L161.741,293.672L161.879,293.713L162.017,293.754L162.155,293.794L162.293,293.832L162.431,293.87L162.569,293.906L162.707,293.941L162.846,293.975L162.984,294.008L163.122,294.04L163.26,294.072L163.398,294.102L163.536,294.131L163.673,294.159L163.811,294.186L163.948,294.213L164.086,294.238L164.36,294.285L164.496,294.307L164.768,294.349L164.904,294.368L165.038,294.386L165.173,294.404L165.308,294.42L165.442,294.436L165.575,294.45L165.708,294.464L165.841,294.477L165.973,294.489L166.104,294.5L166.235,294.51L166.365,294.52L166.496,294.528L166.625,294.536L166.753,294.543L166.881,294.548L167.008,294.553L167.134,294.557L167.26,294.561L167.385,294.563L167.508,294.565L167.631,294.566L167.754,294.566L167.875,294.566L167.996,294.564L168.115,294.562L168.234,294.559L168.351,294.556L168.468,294.551L168.584,294.546L168.698,294.54L168.812,294.534L168.925,294.526L169.036,294.518L169.146,294.509L169.256,294.5L169.363,294.49L169.47,294.479L169.575,294.468L169.679,294.456L169.781,294.444L169.882,294.431L169.983,294.417L170.081,294.403L170.178,294.388L170.273,294.372L170.368,294.356L170.46,294.34L170.551,294.323L170.641,294.306L170.728,294.288L170.814,294.27L170.899,294.25L170.981,294.231L171.062,294.211L171.141,294.192L171.219,294.171L171.294,294.151L171.367,294.129L171.439,294.108L171.508,294.087L171.575,294.065L171.64,294.043L171.703,294.022L171.764,293.999L171.822,293.977L171.879,293.955L171.932,293.933L171.984,293.911L172.032,293.89L172.079,293.868L172.123,293.847L172.164,293.827L172.202,293.806L172.238,293.787L172.271,293.768L172.3,293.75L172.327,293.733L172.351,293.718L172.372,293.704L172.39,293.69L172.404,293.679L172.409,293.675L172.432,293.636L172.498,293.529L172.565,293.424L172.633,293.324L172.703,293.225L172.772,293.134L172.812,293.082L172.849,293.036L172.887,292.991L172.926,292.945L173.006,292.858L173.047,292.815L173.089,292.771L173.132,292.73L173.175,292.69L173.22,292.649L173.266,292.609L173.312,292.57L173.36,292.532L173.408,292.494L173.458,292.459L173.509,292.424L173.56,292.389L173.614,292.356L173.668,292.324L173.724,292.293L173.78,292.264L173.837,292.236L173.897,292.209L173.958,292.183L174.017,292.16L174.078,292.139L174.142,292.118L174.205,292.101L174.267,292.084L174.333,292.069L174.397,292.058L174.463,292.047L174.53,292.039L174.592,292.033L174.67,292.028L174.79,292.027L174.917,292.033L175.042,292.047L175.165,292.069L175.282,292.096L175.394,292.13L175.501,292.169L175.603,292.211L175.698,292.256L175.788,292.305L175.874,292.355L175.952,292.407L176.027,292.46L176.097,292.514L176.161,292.567L176.223,292.621L176.279,292.674L176.331,292.726L176.38,292.777L176.427,292.827L176.47,292.877L176.51,292.926L176.547,292.973L176.587,293.024L176.645,293.105L176.699,293.185L176.745,293.26L176.785,293.326L176.818,293.386L176.847,293.44L177.025,293.795L177.053,294.206L177.056,294.238L177.059,294.268L177.063,294.295L177.067,294.322L177.07,294.349L177.075,294.373L177.08,294.396L177.084,294.418L177.089,294.438L177.094,294.458L177.099,294.477L177.105,294.494L177.115,294.526L177.12,294.54L177.125,294.554L177.131,294.568L177.137,294.58L177.142,294.591L177.147,294.602L177.152,294.613L177.158,294.623L177.163,294.632L177.169,294.642L177.175,294.65L177.18,294.659L177.197,294.684L177.203,294.692L177.223,294.715L177.245,294.738L177.252,294.745L177.261,294.753L177.269,294.76L177.287,294.775L177.297,294.784L177.318,294.799L177.328,294.807L177.364,294.83L177.377,294.838L177.391,294.846L177.404,294.854L177.418,294.862L177.448,294.877L177.464,294.885L177.48,294.893L177.496,294.9L177.513,294.908L177.531,294.915L177.548,294.922L177.566,294.929L177.585,294.936L177.599,294.941L177.643,294.957L177.683,294.969L177.724,294.981L177.766,294.991L177.81,295.002L177.853,295.011L177.897,295.02L177.942,295.027L177.988,295.034L178.032,295.041L178.077,295.045L178.121,295.05L178.165,295.053L178.209,295.056L178.251,295.058L178.292,295.059L178.333,295.06L178.371,295.06L178.407,295.059L178.442,295.058L178.475,295.057L178.505,295.054L178.532,295.052L178.557,295.05L178.578,295.048L178.594,295.046L178.605,295.045L178.652,295.032L178.736,295.011L178.812,294.995L178.883,294.983L178.949,294.972L179.016,294.961L179.137,294.945L179.381,294.913L179.507,294.897L179.637,294.879L179.699,294.87L179.765,294.86L179.83,294.85L179.896,294.838L179.962,294.827L180.028,294.814L180.096,294.8L180.162,294.786L180.228,294.772L180.295,294.756L180.361,294.739L180.427,294.722L180.493,294.703L180.558,294.684L180.622,294.663L180.686,294.642L180.749,294.62L180.811,294.597L180.872,294.572L180.935,294.545L180.961,294.534L180.989,294.521L181.019,294.508L181.103,294.466L181.183,294.422L181.236,294.392L181.286,294.361L181.31,294.345L181.335,294.329L181.358,294.313L181.382,294.297L181.405,294.279L181.428,294.263L181.472,294.229L181.493,294.211L181.535,294.175L181.555,294.157L181.575,294.138L181.595,294.12L181.614,294.101L181.633,294.082L181.67,294.043L181.688,294.022L181.705,294.002L181.739,293.96L181.756,293.938L181.789,293.894L181.82,293.848L181.836,293.824L181.851,293.799L181.866,293.774L181.881,293.749L181.896,293.723L181.91,293.696L181.925,293.667L181.938,293.64L181.952,293.611L181.966,293.581L181.979,293.549L181.992,293.517L182.004,293.485L182.017,293.451L182.03,293.417L182.048,293.363L182.069,293.301L182.1,293.218L182.134,293.135L182.171,293.053L182.213,292.969L182.259,292.885L182.309,292.801L182.365,292.717L182.425,292.635L182.489,292.553L182.56,292.472L182.635,292.395L182.715,292.32L182.801,292.249L182.89,292.182L182.983,292.12L183.08,292.063L183.178,292.013L183.279,291.969L183.38,291.93L183.481,291.898L183.582,291.873L183.682,291.853L183.778,291.839L183.875,291.829L183.968,291.825L184.058,291.824L184.146,291.828L184.229,291.835L184.31,291.845L184.389,291.857L184.463,291.872L184.535,291.889L184.605,291.907L184.672,291.928L184.736,291.948L184.799,291.971L184.859,291.994L184.916,292.018L184.972,292.043L185.026,292.068L185.086,292.098L185.179,292.146L185.274,292.201L185.365,292.257L185.453,292.314L185.537,292.371L185.617,292.429L185.695,292.488L185.771,292.547L185.844,292.607L185.916,292.667L185.987,292.727L186.054,292.787L186.121,292.847L186.186,292.908L186.25,292.968L186.312,293.027L186.373,293.087L186.432,293.146L186.492,293.206L186.602,293.319L186.707,293.429L186.806,293.535L186.898,293.634L187.057,293.807L187.108,293.861L187.135,293.871L187.176,293.885L187.22,293.9L187.266,293.915L187.375,293.949L187.493,293.984L187.624,294.022L187.765,294.06L187.917,294.099L188.078,294.14L188.249,294.181L188.428,294.223L188.616,294.265L188.812,294.307L189.015,294.349L189.226,294.391L189.444,294.432L189.667,294.473L189.898,294.513L190.134,294.552L190.375,294.591L190.623,294.628L190.747,294.646L190.873,294.663L191.128,294.698L191.258,294.714L191.388,294.731L191.519,294.746L191.652,294.761L191.785,294.776L191.918,294.791L192.053,294.804L192.188,294.818L192.46,294.843L192.598,294.854L192.736,294.865L192.873,294.875L193.012,294.885L193.151,294.894L193.291,294.902L193.43,294.91L193.57,294.917L193.711,294.923L193.851,294.929L193.992,294.934L194.133,294.938L194.273,294.941L194.414,294.943L194.556,294.945L194.696,294.946L194.837,294.946L194.977,294.945L195.118,294.943L195.258,294.941L195.397,294.938L195.676,294.928L195.815,294.922L195.953,294.914L196.091,294.906L196.228,294.897L196.364,294.887L196.5,294.876L196.636,294.863L196.77,294.85L196.904,294.836L197.037,294.821L197.168,294.804L197.3,294.787L197.429,294.769L197.558,294.75L197.687,294.729L197.813,294.707L197.939,294.684L198.063,294.661L198.186,294.636L198.308,294.609L198.428,294.582L198.548,294.554L198.665,294.525L198.781,294.494L198.895,294.462L199.008,294.429L199.119,294.396L199.228,294.361L199.336,294.325L199.442,294.288L199.546,294.25L199.648,294.211L199.751,294.17L199.798,294.151L199.847,294.13L199.943,294.088L199.99,294.067L200.037,294.045L200.083,294.023L200.128,294.002L200.174,293.979L200.219,293.956L200.264,293.933L200.307,293.911L200.35,293.888L200.393,293.864L200.435,293.84L200.473,293.818L200.496,293.804L200.515,293.792L200.534,293.78L200.553,293.767L200.572,293.754L200.589,293.742L200.607,293.729L200.641,293.701L200.675,293.672L200.708,293.641L200.724,293.625L200.74,293.609L200.756,293.592L200.771,293.575L200.787,293.557L200.802,293.539L200.818,293.521L200.833,293.501L200.864,293.461L200.879,293.44L200.894,293.419L200.909,293.397L200.923,293.374L200.938,293.351L200.953,293.327L200.967,293.302L200.996,293.251L201.01,293.224L201.024,293.197L201.038,293.168L201.066,293.11L201.079,293.08L201.093,293.049L201.106,293.017L201.119,292.984L201.132,292.951L201.144,292.918L201.157,292.883L201.169,292.848L201.182,292.812L201.194,292.776L201.205,292.738L201.216,292.7L201.228,292.661L201.249,292.582L201.26,292.541L201.279,292.458L201.289,292.415L201.298,292.371L201.307,292.328L201.315,292.283L201.324,292.237L201.332,292.192L201.34,292.145L201.347,292.098L201.354,292.051L201.361,292.001L201.368,291.953L201.374,291.904L201.379,291.853L201.385,291.803L201.39,291.753L201.395,291.701L201.398,291.652L201.407,291.544L201.413,291.436L201.418,291.327L201.421,291.216L201.424,291.103L201.425,290.989L201.424,290.873L201.422,290.757L201.418,290.638L201.413,290.518L201.407,290.398L201.399,290.275L201.39,290.152L201.379,290.028L201.368,289.904L201.355,289.778L201.34,289.652L201.324,289.525L201.307,289.396L201.288,289.268L201.269,289.14L201.248,289.011L201.226,288.881L201.202,288.751L201.178,288.622L201.152,288.491L201.125,288.362L201.097,288.231L201.068,288.101L201.038,287.972L201.007,287.842L200.975,287.713L200.942,287.584L200.907,287.456L200.873,287.328L200.836,287.201L200.799,287.073L200.762,286.948L200.724,286.823L200.684,286.698L200.644,286.575L200.603,286.452L200.561,286.33L200.519,286.209L200.476,286.09L200.432,285.973L200.388,285.855L200.343,285.739L200.298,285.626L200.252,285.513L200.206,285.402L200.159,285.293L200.112,285.185L200.065,285.079L200.017,284.975L199.969,284.873L199.921,284.772L199.872,284.675L199.824,284.579L199.776,284.485L199.727,284.394L199.678,284.304L199.63,284.218L199.582,284.133L199.533,284.052L199.486,283.974L199.438,283.897L199.391,283.824L199.345,283.754L199.299,283.687L199.255,283.623L199.21,283.563L199.167,283.505L199.125,283.451L199.084,283.401L199.044,283.353L199.007,283.31L198.97,283.271L198.921,283.218L198.905,283.203L198.889,283.188L198.875,283.175L198.862,283.162L198.849,283.151L198.837,283.14L198.826,283.131L198.815,283.122L198.805,283.115L198.797,283.108L198.789,283.102L198.777,283.094L198.697,283.067L198.582,283.026L198.468,282.984L198.355,282.941L198.243,282.896L198.131,282.851L198.021,282.804L197.91,282.756L197.691,282.656L197.583,282.604L197.476,282.551L197.369,282.498L197.263,282.443L197.158,282.387L197.053,282.33L196.949,282.273L196.846,282.214L196.743,282.155L196.642,282.095L196.54,282.034L196.44,281.972L196.341,281.91L196.241,281.846L196.143,281.782L196.046,281.718L195.949,281.653L195.852,281.586L195.757,281.52L195.663,281.453L195.569,281.385L195.475,281.317L195.383,281.249L195.2,281.11L195.02,280.97L194.844,280.828L194.756,280.757L194.67,280.686L194.584,280.614L194.499,280.542L194.415,280.47L194.332,280.397L194.249,280.325L194.167,280.252L194.086,280.179L194.006,280.107L193.926,280.033L193.847,279.96L193.768,279.886L193.616,279.741L193.466,279.595L193.319,279.45L193.176,279.306L193.036,279.161L192.899,279.018L192.766,278.876L192.637,278.736L192.511,278.597L192.389,278.46L192.27,278.324L192.156,278.191L192.044,278.06L191.937,277.931L191.834,277.805L191.734,277.681L191.639,277.56L191.547,277.443L191.459,277.328L191.375,277.217L191.296,277.109L191.22,277.004L191.148,276.903L191.08,276.805L191.016,276.71L190.955,276.619L190.898,276.53L190.844,276.442L190.791,276.355L190.742,276.266L190.691,276.173L190.645,276.078L190.615,276.011L190.585,275.941L190.554,275.856L190.52,275.752L190.484,275.613L190.45,275.412L190.438,275.111L190.508,274.646L190.761,274.138L191.099,273.797L191.503,273.551L192.019,273.441L192.279,273.472L192.448,273.501L192.613,273.549L192.772,273.615L192.925,273.699L193.068,273.799L193.201,273.913L193.321,274.043L193.428,274.185L193.52,274.338L193.597,274.5L193.648,274.645L193.684,274.699L193.726,274.761L193.773,274.829L193.826,274.902L193.882,274.981L193.944,275.063L194.009,275.151L194.079,275.242L194.153,275.337L194.231,275.436L194.313,275.538L194.398,275.642L194.488,275.75L194.581,275.859L194.678,275.972L194.778,276.086L194.881,276.202L194.988,276.319L195.097,276.438L195.21,276.558L195.325,276.679L195.443,276.8L195.564,276.923L195.688,277.046L195.814,277.168L195.945,277.292L196.008,277.352L196.074,277.413L196.14,277.473L196.207,277.535L196.275,277.595L196.343,277.655L196.411,277.715L196.55,277.835L196.619,277.894L196.76,278.012L196.903,278.127L196.975,278.185L197.048,278.242L197.121,278.298L197.194,278.353L197.267,278.409L197.341,278.464L197.415,278.518L197.49,278.572L197.565,278.624L197.64,278.677L197.715,278.729L197.79,278.779L197.867,278.83L197.943,278.879L198.018,278.928L198.095,278.976L198.171,279.023L198.248,279.069L198.325,279.115L198.402,279.159L198.479,279.203L198.555,279.245L198.633,279.287L198.71,279.328L198.864,279.407L198.942,279.445L199.019,279.481L199.096,279.518L199.173,279.552L199.25,279.586L199.327,279.618L199.404,279.65L199.558,279.71L199.634,279.738L199.71,279.765L199.802,279.795L199.856,279.814L199.923,279.84L199.99,279.866L200.054,279.895L200.118,279.925L200.181,279.955L200.241,279.987L200.301,280.02L200.36,280.053L200.417,280.088L200.473,280.124L200.528,280.16L200.582,280.197L200.636,280.235L200.688,280.273L200.739,280.313L200.79,280.352L200.839,280.393L200.888,280.434L200.936,280.476L200.984,280.518L201.077,280.604L201.122,280.648L201.167,280.693L201.215,280.741L201.298,280.829L201.383,280.923L201.467,281.018L201.549,281.115L201.629,281.214L201.708,281.316L201.785,281.418L201.861,281.523L201.937,281.63L202.011,281.739L202.084,281.85L202.156,281.962L202.227,282.076L202.297,282.192L202.367,282.309L202.435,282.428L202.503,282.549L202.57,282.671L202.636,282.796L202.7,282.922L202.765,283.05L202.829,283.178L202.892,283.309L202.954,283.441L203.015,283.574L203.075,283.71L203.135,283.846L203.193,283.984L203.252,284.123L203.309,284.263L203.365,284.405L203.421,284.548L203.475,284.692L203.529,284.837L203.581,284.984L203.633,285.131L203.684,285.279L203.733,285.429L203.783,285.58L203.83,285.731L203.878,285.883L203.923,286.036L203.968,286.19L204.012,286.344L204.054,286.5L204.096,286.656L204.136,286.812L204.175,286.969L204.213,287.128L204.25,287.286L204.285,287.444L204.319,287.604L204.353,287.764L204.384,287.924L204.414,288.084L204.443,288.245L204.471,288.406L204.497,288.567L204.522,288.729L204.545,288.89L204.567,289.052L204.587,289.213L204.605,289.375L204.622,289.537L204.638,289.699L204.651,289.861L204.664,290.022L204.674,290.184L204.682,290.345L204.689,290.507L204.694,290.668L204.696,290.829L204.698,290.989L204.696,291.15L204.694,291.31L204.689,291.469L204.681,291.629L204.672,291.788L204.66,291.943L204.653,292.026L204.646,292.105L204.638,292.183L204.63,292.262L204.621,292.341L204.611,292.419L204.601,292.499L204.59,292.576L204.578,292.654L204.566,292.733L204.553,292.81L204.539,292.888L204.525,292.965L204.51,293.043L204.494,293.121L204.478,293.198L204.461,293.274L204.442,293.351L204.424,293.428L204.404,293.504L204.384,293.581L204.363,293.657L204.342,293.732L204.296,293.883L204.246,294.033L204.22,294.108L204.193,294.182L204.165,294.256L204.136,294.331L204.107,294.404L204.077,294.477L204.044,294.55L204.012,294.623L203.978,294.695L203.944,294.767L203.908,294.838L203.872,294.909L203.834,294.979L203.796,295.05L203.756,295.12L203.716,295.189L203.673,295.258L203.63,295.326L203.586,295.393L203.542,295.461L203.495,295.527L203.447,295.593L203.399,295.658L203.349,295.723L203.299,295.786L203.246,295.849L203.193,295.912L203.139,295.973L203.083,296.033L203.027,296.093L202.97,296.152L202.911,296.209L202.85,296.266L202.79,296.322L202.727,296.377L202.664,296.43L202.6,296.483L202.535,296.535L202.469,296.585L202.401,296.635L202.333,296.682L202.264,296.729L202.193,296.775L202.122,296.819L202.053,296.86L201.982,296.901L201.913,296.939L201.845,296.976L201.775,297.014L201.637,297.087L201.497,297.156L201.426,297.19L201.355,297.224L201.284,297.257L201.213,297.289L201.142,297.32L201.069,297.351L200.997,297.382L200.923,297.413L200.78,297.47L200.633,297.526L200.487,297.58L200.338,297.631L200.189,297.681L200.04,297.728L199.889,297.774L199.738,297.818L199.586,297.86L199.434,297.9L199.281,297.938L199.127,297.975L198.972,298.01L198.817,298.043L198.662,298.074L198.506,298.104L198.349,298.133L198.193,298.16L198.035,298.185L197.877,298.209L197.719,298.231L197.561,298.252L197.403,298.272L197.244,298.29L197.084,298.307L196.925,298.323L196.765,298.337L196.605,298.35L196.446,298.362L196.285,298.373L196.125,298.382L195.965,298.39L195.805,298.398L195.645,298.404L195.485,298.409L195.325,298.413L195.165,298.416L195.005,298.418L194.846,298.419L194.687,298.419L194.527,298.418L194.369,298.416L194.211,298.413L194.052,298.41L193.894,298.405L193.737,298.399L193.58,298.393L193.424,298.386L193.268,298.379L193.113,298.37L192.804,298.351L192.497,298.329L192.346,298.316L192.194,298.304L192.044,298.29L191.895,298.276L191.745,298.262L191.597,298.247L191.304,298.215L191.159,298.198L191.015,298.181L190.872,298.163L190.731,298.145L190.589,298.126L190.45,298.107L190.312,298.088L190.173,298.068L189.904,298.027L189.639,297.985L189.379,297.942L189.125,297.898L188.878,297.853L188.636,297.807L188.402,297.76L188.174,297.713L187.954,297.666L187.741,297.619L187.535,297.571L187.337,297.523L187.147,297.475L186.965,297.428L186.792,297.38L186.625,297.333L186.468,297.286L186.321,297.239L186.246,297.215L186.176,297.192L186.107,297.168L186.039,297.144L185.973,297.119L185.907,297.094L185.844,297.069L185.78,297.042L185.715,297.014L185.649,296.984L185.583,296.952L185.513,296.915L185.436,296.872L185.341,296.814L185.241,296.743L185.159,296.676L185.095,296.621L185.041,296.571L184.995,296.526L184.95,296.481L184.874,296.403L184.798,296.321L184.721,296.239L184.562,296.066L184.481,295.979L184.438,295.934L184.401,295.987L184.35,296.057L184.299,296.125L184.247,296.192L184.193,296.259L184.14,296.323L184.085,296.387L184.03,296.448L183.974,296.509L183.919,296.568L183.862,296.626L183.804,296.682L183.746,296.737L183.687,296.792L183.629,296.844L183.57,296.896L183.511,296.946L183.45,296.995L183.391,297.042L183.331,297.089L183.27,297.134L183.209,297.178L183.148,297.221L183.087,297.262L183.027,297.303L182.965,297.342L182.904,297.38L182.842,297.418L182.781,297.454L182.72,297.489L182.659,297.523L182.597,297.556L182.536,297.588L182.476,297.619L182.414,297.649L182.353,297.678L182.293,297.707L182.232,297.734L182.168,297.762L182.052,297.812L181.933,297.859L181.815,297.903L181.698,297.945L181.583,297.983L181.468,298.019L181.356,298.053L181.244,298.085L181.135,298.114L181.027,298.141L180.922,298.166L180.818,298.189L180.716,298.21L180.617,298.23L180.52,298.249L180.425,298.265L180.333,298.281L180.243,298.295L180.158,298.308L180.073,298.321L179.919,298.342L179.778,298.36L179.547,298.39L179.462,298.402L179.435,298.406L179.413,298.41L179.411,298.41L179.372,298.421L179.296,298.44L179.225,298.455L179.155,298.468L179.085,298.48L179.015,298.49L178.944,298.499L178.871,298.507L178.797,298.514L178.721,298.52L178.642,298.525L178.563,298.529L178.481,298.531L178.397,298.533L178.31,298.533ZM193,276.643L193.072,276.6L193.122,276.548L193.052,276.608L193,276.643Z" style="fill:rgb(216,159,133);fill-opacity:0.5;fill-rule:nonzero;"/>
				<path d="M193.02,1.666C177.949,41.095 166.908,75.054 198.967,109.287C218.599,130.251 241.286,147.935 264.841,164.306C268.981,167.183 273.117,169.921 277.745,171.967C282.794,174.199 288.537,175.702 292.243,180.075C295.9,184.392 297.323,190.275 298.426,195.682C299.68,201.832 299.965,208.116 300.484,214.355C301.049,221.134 301.829,227.696 301.382,234.518C300.71,244.788 298.589,254.884 297.145,265.057C296.212,271.623 294.995,278.243 294.241,284.817C293.976,287.13 289.721,303.12 291.413,305.031C293.1,306.936 301.08,293.478 303.228,293.194C308.504,292.498 313.554,290.014 318.873,289.89C325.08,289.746 332.734,292.305 338.443,288.919C344.945,285.062 346.197,272.596 340.22,267.829C339.869,267.548 340.752,267.113 341.078,266.82C348.401,260.256 359.324,263.732 366.009,255.967C369.756,251.614 372.787,245.012 372.383,239.162C372.165,235.993 370.219,233.499 370.573,230.542C375.657,228.107 382.465,219.685 381.045,213.215C380.686,211.577 379.119,209.802 378.188,208.52C377.626,207.747 378.268,206.626 378.21,205.7C377.528,194.899 381.038,182.32 375.691,172.325C371.888,165.216 363.086,164.805 358.119,159.118C355.224,155.804 350.966,150.082 350.589,145.544C350.409,143.387 351.783,141.376 352.263,139.335C352.953,136.398 351.877,133.703 350.036,131.41C348.318,129.271 346.126,127.577 343.324,127.307C339.806,126.968 336.261,128.609 332.832,127.208C330.828,126.388 329.464,124.481 328.305,122.737C327.962,122.221 327.625,121.698 327.295,121.171C326.432,121.527 322.195,124.441 321.405,123.191C320.932,122.443 322.235,119.073 322.404,118.181C322.947,115.336 321.962,112.055 321.452,109.252C319.587,98.992 315.459,89.289 311.105,79.873C305.638,68.049 301.878,55.007 294.01,44.46C287.632,35.913 278.045,31.771 269.601,25.726C263.41,21.295 258.504,15.428 251.947,11.459C234.914,1.151 213.481,-2.45 193.02,1.666"/>
				<path d="M188.704,2.568C167.48,33.06 172.661,73.502 151.111,103.74C146.416,110.328 140.057,116.407 134.318,121.998C129.333,126.855 123.53,130.546 118.945,135.875C116.669,138.519 114.308,141.112 112.573,144.159C110.601,147.624 109.497,151.472 107.601,154.957C105.647,158.55 102.797,161.837 99.858,164.654C95,169.308 87.092,170.563 82.699,175.52C82.102,176.193 81.709,177.016 81.344,177.888C79.208,182.99 76.684,188.448 75.252,193.858C71.832,206.78 71.405,222.432 73.62,235.553C75.5,246.686 77.508,257.702 79.112,268.895C80.288,277.1 78.278,285.657 80.652,293.938C82.717,301.142 83.406,312.128 81.971,312.335C81.085,312.463 71.885,296.308 71.17,295.868C68.344,294.128 65.115,293.812 62.053,292.674C56.422,290.581 55.447,284.393 50.223,281.821C48.209,280.83 45.737,281.351 43.558,280.422C41.676,279.619 39.983,277.214 38.02,276.729C37.501,276.601 36.085,277.381 35.607,277.531C33.879,278.069 32.108,278.509 30.296,278.632C25.565,278.954 19.747,274.756 16.904,271.183C15.297,269.164 14.723,266.615 13.97,264.2C12.464,259.365 11.117,254.441 11.204,249.338C11.251,246.578 12.559,243.631 12.015,240.86C11.581,238.651 9.536,237.747 7.919,236.417C5.101,234.1 1.879,231.548 0.757,227.91C-1.109,221.858 0.79,213.562 3.03,207.863C4.109,205.119 5.891,202.575 6.451,199.643C6.989,196.831 5.973,193.983 6.136,191.194C6.28,188.716 7.573,186.276 8.887,184.21C11.039,180.825 14.022,178.567 18.055,178.069C19.713,177.865 24.377,178.568 25.541,177.246C26.45,176.212 24.475,173.839 24.079,173.202C22.051,169.945 20.418,166.614 20.559,162.676C20.952,151.743 31.737,138.711 43.198,138.501C47.143,138.428 49.851,141.8 53.827,142.247C55.739,134.351 57.95,127.065 61.267,119.646C68.228,104.073 68.807,86.437 76.32,71.163C81.321,60.995 88.331,51.666 95.729,43.134C100.498,37.634 105.298,31.798 110.786,27.023C120.148,18.877 132.156,12.398 143.944,8.497C150.601,6.294 157.512,5.652 164.443,4.918C173.004,4.011 181.033,3.377 189.496,5.129"/>
			</svg>
